<svg width="1007" height="617" viewBox="0 0 1007 617" fill="none" xmlns="http://www.w3.org/2000/svg">
<mask id="path-1-outside-1_315_2" maskUnits="userSpaceOnUse" x="0" y="0" width="1007" height="617" fill="black">
<rect fill="white" width="1007" height="617"/>
<path fill-rule="evenodd" clip-rule="evenodd" d="M13 1C6.37258 1 1 6.37259 1 13V567C1 573.627 6.37259 579 13 579H184.075V612.054C184.075 614.038 185.966 615.475 187.878 614.944L317.361 579H994C1000.63 579 1006 573.627 1006 567V13C1006 6.37258 1000.63 1 994 1H13Z"/>
</mask>
<path fill-rule="evenodd" clip-rule="evenodd" d="M13 1C6.37258 1 1 6.37259 1 13V567C1 573.627 6.37259 579 13 579H184.075V612.054C184.075 614.038 185.966 615.475 187.878 614.944L317.361 579H994C1000.63 579 1006 573.627 1006 567V13C1006 6.37258 1000.63 1 994 1H13Z" fill="#161616"/>
<path d="M184.075 579H185.075V578H184.075V579ZM187.878 614.944L188.145 615.908L188.145 615.908L187.878 614.944ZM317.361 579V578H317.224L317.093 578.036L317.361 579ZM2 13C2 6.92487 6.92487 2 13 2V0C5.8203 0 0 5.8203 0 13H2ZM2 567V13H0V567H2ZM13 578C6.92487 578 2 573.075 2 567H0C0 574.18 5.8203 580 13 580V578ZM184.075 578H13V580H184.075V578ZM185.075 612.054V579H183.075V612.054H185.075ZM187.61 613.981C186.336 614.335 185.075 613.376 185.075 612.054H183.075C183.075 614.699 185.597 616.615 188.145 615.908L187.61 613.981ZM317.093 578.036L187.61 613.981L188.145 615.908L317.628 579.964L317.093 578.036ZM994 578H317.361V580H994V578ZM1005 567C1005 573.075 1000.08 578 994 578V580C1001.18 580 1007 574.18 1007 567H1005ZM1005 13V567H1007V13H1005ZM994 2C1000.08 2 1005 6.92487 1005 13H1007C1007 5.8203 1001.18 0 994 0V2ZM13 2H994V0H13V2Z" fill="#00FFB2" mask="url(#path-1-outside-1_315_2)"/>
</svg>
