<svg width="1514" height="60" viewBox="0 0 1514 60" fill="none" xmlns="http://www.w3.org/2000/svg">
<path d="M355 54H1514V60H355V54Z" fill="#0F0F0E"/>
<path d="M62.76 27H53.16L46.68 39L40.2 27H30.6V48H38.4V38.01L44.13 48H49.23L54.96 38.01V48H62.76V27ZM74.9491 41.1V48H82.7491V41.1L93.4291 27H84.4291L78.8491 34.8L73.2691 27H64.2691L74.9491 41.1ZM107.246 40.59C107.246 46.83 112.046 48.3 120.656 48.3C129.266 48.3 134.066 46.83 134.066 41.04C134.066 35.55 128.936 34.98 120.656 34.65C116.096 34.47 115.346 34.5 115.346 33.69C115.346 32.88 116.096 32.7 119.756 32.7C123.566 32.7 125.366 32.94 125.366 34.05H133.166C133.166 28.68 128.546 26.7 120.356 26.7C112.076 26.7 107.546 28.68 107.546 33.3C107.546 38.19 111.176 39.75 120.656 40.05C125.576 40.2 126.266 40.32 126.266 41.22C126.266 42 125.576 42.3 120.956 42.3C116.006 42.3 115.046 41.61 115.046 40.59H107.246ZM153.881 48H162.461L153.761 27H142.181L133.481 48H142.061L143.501 44.22H152.441L153.881 48ZM145.541 38.82L147.971 32.4L150.401 38.82H145.541ZM195.838 27H186.238L179.758 39L173.278 27H163.678V48H171.478V38.01L177.208 48H182.308L188.038 38.01V48H195.838V27ZM214.147 27H197.647V48H205.447V43.08H214.147C218.917 43.08 222.187 39.72 222.187 35.04C222.187 30.36 218.917 27 214.147 27ZM212.647 36.48H205.447V33.6H212.647C213.427 33.6 214.387 33.6 214.387 35.04C214.387 36.48 213.427 36.48 212.647 36.48ZM231.477 41.4V27H223.677V48H245.277V41.4H231.477ZM268.977 33V27H246.777V48H268.977V42H254.577V40.05H268.977V34.95H254.577V33H268.977ZM295.003 35.04C295.003 30.36 291.733 27 286.963 27H270.463V48H278.263V43.08H282.853L285.763 48H295.003L291.283 41.97C293.593 40.62 295.003 38.1 295.003 35.04ZM278.263 33.6H285.463C286.243 33.6 287.203 33.6 287.203 35.04C287.203 36.48 286.243 36.48 285.463 36.48H278.263V33.6ZM295.9 40.59C295.9 46.83 300.7 48.3 309.31 48.3C317.92 48.3 322.72 46.83 322.72 41.04C322.72 35.55 317.59 34.98 309.31 34.65C304.75 34.47 304 34.5 304 33.69C304 32.88 304.75 32.7 308.41 32.7C312.22 32.7 314.02 32.94 314.02 34.05H321.82C321.82 28.68 317.2 26.7 309.01 26.7C300.73 26.7 296.2 28.68 296.2 33.3C296.2 38.19 299.83 39.75 309.31 40.05C314.23 40.2 314.92 40.32 314.92 41.22C314.92 42 314.23 42.3 309.61 42.3C304.66 42.3 303.7 41.61 303.7 40.59H295.9Z" fill="black"/>
<rect width="324" height="6" fill="#0F0F0E"/>
<path d="M323.5 0L356 54V60L323.5 6V0Z" fill="black"/>
</svg>
