<svg width="1005" height="140" viewBox="0 0 1005 140" fill="none" xmlns="http://www.w3.org/2000/svg">
<mask id="path-1-outside-1_220_2" maskUnits="userSpaceOnUse" x="0" y="0" width="1005" height="140" fill="black">
<rect fill="white" width="1005" height="140"/>
<path fill-rule="evenodd" clip-rule="evenodd" d="M13 1C6.37258 1 1 6.37258 1 13V113.074C1 119.701 6.37256 125.074 13 125.074H183.711V135.883C183.711 137.712 185.334 139.116 187.144 138.852L281.726 125.074H992C998.627 125.074 1004 119.701 1004 113.074V13C1004 6.37258 998.627 1 992 1H13Z"/>
</mask>
<path fill-rule="evenodd" clip-rule="evenodd" d="M13 1C6.37258 1 1 6.37258 1 13V113.074C1 119.701 6.37256 125.074 13 125.074H183.711V135.883C183.711 137.712 185.334 139.116 187.144 138.852L281.726 125.074H992C998.627 125.074 1004 119.701 1004 113.074V13C1004 6.37258 998.627 1 992 1H13Z" fill="#161616"/>
<path d="M183.711 125.074H184.711V124.074H183.711V125.074ZM187.144 138.852L187.288 139.841L187.288 139.841L187.144 138.852ZM281.726 125.074V124.074H281.653L281.582 124.084L281.726 125.074ZM2 13C2 6.92487 6.92487 2 13 2V0C5.8203 0 0 5.82029 0 13H2ZM2 113.074V13H0V113.074H2ZM13 124.074C6.92485 124.074 2 119.149 2 113.074H0C0 120.254 5.82027 126.074 13 126.074V124.074ZM183.711 124.074H13V126.074H183.711V124.074ZM184.711 135.883V125.074H182.711V135.883H184.711ZM186.999 137.862C185.793 138.038 184.711 137.103 184.711 135.883H182.711C182.711 138.322 184.874 140.193 187.288 139.841L186.999 137.862ZM281.582 124.084L186.999 137.862L187.288 139.841L281.87 126.063L281.582 124.084ZM992 124.074H281.726V126.074H992V124.074ZM1003 113.074C1003 119.149 998.075 124.074 992 124.074V126.074C999.18 126.074 1005 120.254 1005 113.074H1003ZM1003 13V113.074H1005V13H1003ZM992 2C998.075 2 1003 6.92487 1003 13H1005C1005 5.8203 999.18 0 992 0V2ZM13 2H992V0H13V2Z" fill="#00FFB2" mask="url(#path-1-outside-1_220_2)"/>
</svg>
